grf
version=1
nRows=46
nColumns=28
inDegrees=yes
endheader
time	ground_force_1_vx	ground_force_1_vy	ground_force_1_vz	ground_force_1_px	ground_force_1_py	ground_force_1_pz	ground_moment_1_mx	ground_moment_1_my	ground_moment_1_mz	ground_force_2_vx	ground_force_2_vy	ground_force_2_vz	ground_force_2_px	ground_force_2_py	ground_force_2_pz	ground_moment_2_mx	ground_moment_2_my	ground_moment_2_mz	ground_force_3_vx	ground_force_3_vy	ground_force_3_vz	ground_force_3_px	ground_force_3_py	ground_force_3_pz	ground_moment_3_mx	ground_moment_3_my	ground_moment_3_mz
0.630000	50.341411	450.416015	-15.595179	-0.199250	-0.000158	-0.241219	-0.000477	0.552534	0.001020	0.000000	0.000000	0.000000	0.000000	0.000000	0.000000	0.000000	0.000000	0.000000	0.000000	0.000000	0.000000	0.000000	0.000000	0.000000	0.000000	0.000000	0.000000
0.630667	50.823593	450.341313	-15.456258	-0.199089	-0.000158	-0.241282	-0.000475	0.550781	0.001017	0.000000	0.000000	0.000000	0.000000	0.000000	0.000000	0.000000	0.000000	0.000000	0.000000	0.000000	0.000000	0.000000	0.000000	0.000000	0.000000	0.000000	0.000000
0.631333	51.309026	450.232566	-15.316080	-0.198928	-0.000158	-0.241344	-0.000473	0.548934	0.001014	0.000000	0.000000	0.000000	0.000000	0.000000	0.000000	0.000000	0.000000	0.000000	0.000000	0.000000	0.000000	0.000000	0.000000	0.000000	0.000000	0.000000	0.000000
0.632000	51.797459	450.089809	-15.174584	-0.198768	-0.000157	-0.241406	-0.000472	0.546982	0.001010	0.000000	0.000000	0.000000	0.000000	0.000000	0.000000	0.000000	0.000000	0.000000	0.000000	0.000000	0.000000	0.000000	0.000000	0.000000	0.000000	0.000000	0.000000
0.632667	52.288649	449.913111	-15.031697	-0.198607	-0.000157	-0.241467	-0.000470	0.544907	0.001006	0.000000	0.000000	0.000000	0.000000	0.000000	0.000000	0.000000	0.000000	0.000000	0.000000	0.000000	0.000000	0.000000	0.000000	0.000000	0.000000	0.000000	0.000000
0.633333	52.782362	449.702569	-14.887342	-0.198447	-0.000157	-0.241527	-0.000468	0.542690	0.001002	0.000000	0.000000	0.000000	0.000000	0.000000	0.000000	0.000000	0.000000	0.000000	0.000000	0.000000	0.000000	0.000000	0.000000	0.000000	0.000000	0.000000	0.000000
0.634000	53.278358	449.458271	-14.741438	-0.198288	-0.000157	-0.241587	-0.000466	0.540310	0.000998	0.000000	0.000000	0.000000	0.000000	0.000000	0.000000	0.000000	0.000000	0.000000	0.000000	0.000000	0.000000	0.000000	0.000000	0.000000	0.000000	0.000000	0.000000
0.634667	53.776377	449.180262	-14.593908	-0.198129	-0.000156	-0.241647	-0.000464	0.537748	0.000993	0.000000	0.000000	0.000000	0.000000	0.000000	0.000000	0.000000	0.000000	0.000000	0.000000	0.000000	0.000000	0.000000	0.000000	0.000000	0.000000	0.000000	0.000000
0.635333	54.276115	448.868556	-14.444682	-0.197970	-0.000156	-0.241706	-0.000461	0.534991	0.000988	0.000000	0.000000	0.000000	0.000000	0.000000	0.000000	0.000000	0.000000	0.000000	0.000000	0.000000	0.000000	0.000000	0.000000	0.000000	0.000000	0.000000	0.000000
0.636000	54.777203	448.523161	-14.293702	-0.197811	-0.000156	-0.241766	-0.000459	0.532030	0.000983	0.000000	0.000000	0.000000	0.000000	0.000000	0.000000	0.000000	0.000000	0.000000	0.000000	0.000000	0.000000	0.000000	0.000000	0.000000	0.000000	0.000000	0.000000
0.636667	55.279223	448.144117	-14.140914	-0.197654	-0.000156	-0.241826	-0.000456	0.528868	0.000977	0.000000	0.000000	0.000000	0.000000	0.000000	0.000000	0.000000	0.000000	0.000000	0.000000	0.000000	0.000000	0.000000	0.000000	0.000000	0.000000	0.000000	0.000000
0.637333	55.781731	447.731507	-13.986249	-0.197496	-0.000155	-0.241886	-0.000453	0.525510	0.000970	0.000000	0.000000	0.000000	0.000000	0.000000	0.000000	0.000000	0.000000	0.000000	0.000000	0.000000	0.000000	0.000000	0.000000	0.000000	0.000000	0.000000	0.000000
0.638000	56.284265	447.285468	-13.829615	-0.197340	-0.000155	-0.241947	-0.000450	0.521976	0.000964	0.000000	0.000000	0.000000	0.000000	0.000000	0.000000	0.000000	0.000000	0.000000	0.000000	0.000000	0.000000	0.000000	0.000000	0.000000	0.000000	0.000000	0.000000
0.638667	56.786353	446.806154	-13.670907	-0.197184	-0.000155	-0.242008	-0.000447	0.518288	0.000957	0.000000	0.000000	0.000000	0.000000	0.000000	0.000000	0.000000	0.000000	0.000000	0.000000	0.000000	0.000000	0.000000	0.000000	0.000000	0.000000	0.000000	0.000000
0.639333	57.287507	446.293628	-13.510019	-0.197029	-0.000155	-0.242071	-0.000444	0.514475	0.000950	0.000000	0.000000	0.000000	0.000000	0.000000	0.000000	0.000000	0.000000	0.000000	0.000000	0.000000	0.000000	0.000000	0.000000	0.000000	0.000000	0.000000	0.000000
0.640000	57.787215	445.747766	-13.346856	-0.196875	-0.000154	-0.242134	-0.000440	0.510564	0.000943	0.000000	0.000000	0.000000	0.000000	0.000000	0.000000	0.000000	0.000000	0.000000	0.000000	0.000000	0.000000	0.000000	0.000000	0.000000	0.000000	0.000000	0.000000
0.640667	58.284952	445.168326	-13.181336	-0.196721	-0.000154	-0.242198	-0.000437	0.506581	0.000936	0.000000	0.000000	0.000000	0.000000	0.000000	0.000000	0.000000	0.000000	0.000000	0.000000	0.000000	0.000000	0.000000	0.000000	0.000000	0.000000	0.000000	0.000000
0.641333	58.780203	444.555046	-13.013383	-0.196568	-0.000154	-0.242264	-0.000433	0.502546	0.000928	0.000000	0.000000	0.000000	0.000000	0.000000	0.000000	0.000000	0.000000	0.000000	0.000000	0.000000	0.000000	0.000000	0.000000	0.000000	0.000000	0.000000	0.000000
0.642000	59.272477	443.907668	-12.842928	-0.196416	-0.000154	-0.242332	-0.000430	0.498478	0.000921	0.000000	0.000000	0.000000	0.000000	0.000000	0.000000	0.000000	0.000000	0.000000	0.000000	0.000000	0.000000	0.000000	0.000000	0.000000	0.000000	0.000000	0.000000
0.642667	59.761305	443.225938	-12.669913	-0.196265	-0.000153	-0.242401	-0.000426	0.494392	0.000913	0.000000	0.000000	0.000000	0.000000	0.000000	0.000000	0.000000	0.000000	0.000000	0.000000	0.000000	0.000000	0.000000	0.000000	0.000000	0.000000	0.000000	0.000000
0.643333	60.246240	442.509630	-12.494285	-0.196115	-0.000153	-0.242472	-0.000423	0.490301	0.000905	0.000000	0.000000	0.000000	0.000000	0.000000	0.000000	0.000000	0.000000	0.000000	0.000000	0.000000	0.000000	0.000000	0.000000	0.000000	0.000000	0.000000	0.000000
0.644000	60.726850	441.758562	-12.315994	-0.195965	-0.000153	-0.242545	-0.000419	0.486219	0.000898	0.000000	0.000000	0.000000	0.000000	0.000000	0.000000	0.000000	0.000000	0.000000	0.000000	0.000000	0.000000	0.000000	0.000000	0.000000	0.000000	0.000000	0.000000
0.644667	61.202725	440.972550	-12.134986	-0.195816	-0.000152	-0.242620	-0.000416	0.482153	0.000890	0.000000	0.000000	0.000000	0.000000	0.000000	0.000000	0.000000	0.000000	0.000000	0.000000	0.000000	0.000000	0.000000	0.000000	0.000000	0.000000	0.000000	0.000000
0.645333	61.673476	440.151369	-11.951212	-0.195668	-0.000152	-0.242698	-0.000412	0.478109	0.000883	0.000000	0.000000	0.000000	0.000000	0.000000	0.000000	0.000000	0.000000	0.000000	0.000000	0.000000	0.000000	0.000000	0.000000	0.000000	0.000000	0.000000	0.000000
0.646000	62.138741	439.294752	-11.764629	-0.195520	-0.000152	-0.242777	-0.000409	0.474089	0.000876	0.000000	0.000000	0.000000	0.000000	0.000000	0.000000	0.000000	0.000000	0.000000	0.000000	0.000000	0.000000	0.000000	0.000000	0.000000	0.000000	0.000000	0.000000
0.646667	62.598185	438.402405	-11.575180	-0.195372	-0.000152	-0.242858	-0.000405	0.470096	0.000868	0.000000	0.000000	0.000000	0.000000	0.000000	0.000000	0.000000	0.000000	0.000000	0.000000	0.000000	0.000000	0.000000	0.000000	0.000000	0.000000	0.000000	0.000000
0.647333	63.051506	437.474023	-11.382803	-0.195226	-0.000151	-0.242940	-0.000402	0.466130	0.000861	0.000000	0.000000	0.000000	0.000000	0.000000	0.000000	0.000000	0.000000	0.000000	0.000000	0.000000	0.000000	0.000000	0.000000	0.000000	0.000000	0.000000	0.000000
0.648000	63.498440	436.509296	-11.187436	-0.195079	-0.000151	-0.243025	-0.000399	0.462187	0.000854	0.000000	0.000000	0.000000	0.000000	0.000000	0.000000	0.000000	0.000000	0.000000	0.000000	0.000000	0.000000	0.000000	0.000000	0.000000	0.000000	0.000000	0.000000
0.648667	63.938761	435.507913	-10.989042	-0.194933	-0.000151	-0.243111	-0.000395	0.458257	0.000846	0.000000	0.000000	0.000000	0.000000	0.000000	0.000000	0.000000	0.000000	0.000000	0.000000	0.000000	0.000000	0.000000	0.000000	0.000000	0.000000	0.000000	0.000000
0.649333	64.372274	434.469554	-10.787616	-0.194787	-0.000151	-0.243199	-0.000392	0.454329	0.000839	0.000000	0.000000	0.000000	0.000000	0.000000	0.000000	0.000000	0.000000	0.000000	0.000000	0.000000	0.000000	0.000000	0.000000	0.000000	0.000000	0.000000	0.000000
0.650000	64.798809	433.393884	-10.583179	-0.194641	-0.000150	-0.243289	-0.000388	0.450387	0.000832	0.000000	0.000000	0.000000	0.000000	0.000000	0.000000	0.000000	0.000000	0.000000	0.000000	0.000000	0.000000	0.000000	0.000000	0.000000	0.000000	0.000000	0.000000
0.650667	65.218218	432.280563	-10.375783	-0.194495	-0.000150	-0.243380	-0.000385	0.446414	0.000824	0.000000	0.000000	0.000000	0.000000	0.000000	0.000000	0.000000	0.000000	0.000000	0.000000	0.000000	0.000000	0.000000	0.000000	0.000000	0.000000	0.000000	0.000000
0.651333	65.630372	431.129263	-10.165490	-0.194349	-0.000150	-0.243472	-0.000382	0.442392	0.000817	0.000000	0.000000	0.000000	0.000000	0.000000	0.000000	0.000000	0.000000	0.000000	0.000000	0.000000	0.000000	0.000000	0.000000	0.000000	0.000000	0.000000	0.000000
0.652000	66.035166	429.939679	-9.952382	-0.194203	-0.000149	-0.243565	-0.000378	0.438298	0.000809	0.000000	0.000000	0.000000	0.000000	0.000000	0.000000	0.000000	0.000000	0.000000	0.000000	0.000000	0.000000	0.000000	0.000000	0.000000	0.000000	0.000000	0.000000
0.652667	66.432520	428.711519	-9.736559	-0.194057	-0.000149	-0.243659	-0.000374	0.434105	0.000802	0.000000	0.000000	0.000000	0.000000	0.000000	0.000000	0.000000	0.000000	0.000000	0.000000	0.000000	0.000000	0.000000	0.000000	0.000000	0.000000	0.000000	0.000000
0.653333	66.822367	427.444483	-9.518156	-0.193911	-0.000149	-0.243754	-0.000371	0.429786	0.000794	0.000000	0.000000	0.000000	0.000000	0.000000	0.000000	0.000000	0.000000	0.000000	0.000000	0.000000	0.000000	0.000000	0.000000	0.000000	0.000000	0.000000	0.000000
0.654000	67.204626	426.138276	-9.297337	-0.193765	-0.000148	-0.243850	-0.000367	0.425320	0.000785	0.000000	0.000000	0.000000	0.000000	0.000000	0.000000	0.000000	0.000000	0.000000	0.000000	0.000000	0.000000	0.000000	0.000000	0.000000	0.000000	0.000000	0.000000
0.654667	67.579199	424.792598	-9.074286	-0.193618	-0.000148	-0.243946	-0.000363	0.420692	0.000777	0.000000	0.000000	0.000000	0.000000	0.000000	0.000000	0.000000	0.000000	0.000000	0.000000	0.000000	0.000000	0.000000	0.000000	0.000000	0.000000	0.000000	0.000000
0.655333	67.945975	423.407094	-8.849205	-0.193472	-0.000148	-0.244043	-0.000359	0.415889	0.000768	0.000000	0.000000	0.000000	0.000000	0.000000	0.000000	0.000000	0.000000	0.000000	0.000000	0.000000	0.000000	0.000000	0.000000	0.000000	0.000000	0.000000	0.000000
0.656000	68.304841	421.981343	-8.622309	-0.193325	-0.000148	-0.244141	-0.000354	0.410899	0.000759	0.000000	0.000000	0.000000	0.000000	0.000000	0.000000	0.000000	0.000000	0.000000	0.000000	0.000000	0.000000	0.000000	0.000000	0.000000	0.000000	0.000000	0.000000
0.656667	68.655689	420.514910	-8.393831	-0.193179	-0.000147	-0.244239	-0.000350	0.405711	0.000749	0.000000	0.000000	0.000000	0.000000	0.000000	0.000000	0.000000	0.000000	0.000000	0.000000	0.000000	0.000000	0.000000	0.000000	0.000000	0.000000	0.000000	0.000000
0.657333	68.998415	419.007413	-8.164018	-0.193032	-0.000147	-0.244337	-0.000345	0.400316	0.000739	0.000000	0.000000	0.000000	0.000000	0.000000	0.000000	0.000000	0.000000	0.000000	0.000000	0.000000	0.000000	0.000000	0.000000	0.000000	0.000000	0.000000	0.000000
0.658000	69.332927	417.458538	-7.933133	-0.192885	-0.000147	-0.244435	-0.000340	0.394705	0.000729	0.000000	0.000000	0.000000	0.000000	0.000000	0.000000	0.000000	0.000000	0.000000	0.000000	0.000000	0.000000	0.000000	0.000000	0.000000	0.000000	0.000000	0.000000
0.658667	69.659134	415.868006	-7.701452	-0.192739	-0.000146	-0.244533	-0.000335	0.388872	0.000718	0.000000	0.000000	0.000000	0.000000	0.000000	0.000000	0.000000	0.000000	0.000000	0.000000	0.000000	0.000000	0.000000	0.000000	0.000000	0.000000	0.000000	0.000000
0.659333	69.976938	414.235561	-7.469255	-0.192593	-0.000146	-0.244631	-0.000330	0.382813	0.000707	0.000000	0.000000	0.000000	0.000000	0.000000	0.000000	0.000000	0.000000	0.000000	0.000000	0.000000	0.000000	0.000000	0.000000	0.000000	0.000000	0.000000	0.000000
0.660000	70.286240	412.561011	-7.236813	-0.192448	-0.000146	-0.244729	-0.000325	0.376529	0.000695	0.000000	0.000000	0.000000	0.000000	0.000000	0.000000	0.000000	0.000000	0.000000	0.000000	0.000000	0.000000	0.000000	0.000000	0.000000	0.000000	0.000000	0.000000
